<svg width="37" height="38" viewBox="0 0 37 38" fill="none" xmlns="http://www.w3.org/2000/svg">
<path d="M30.2938 14.4367L22.8321 13.7892L19.9184 6.92875C19.3942 5.68 17.6059 5.68 17.0817 6.92875L14.1679 13.8046L6.72169 14.4367C5.36502 14.5446 4.81002 16.2404 5.84294 17.1346L11.5009 22.0371L9.80502 29.3138C9.49669 30.6396 10.9304 31.6879 12.1021 30.9788L18.5 27.1246L24.8979 30.9942C26.0696 31.7033 27.5034 30.655 27.195 29.3292L25.4992 22.0371L31.1571 17.1346C32.19 16.2404 31.6504 14.5446 30.2938 14.4367ZM18.5 24.2417L12.7034 27.7413L14.245 21.1429L9.12669 16.7029L15.8792 16.1171L18.5 9.90417L21.1363 16.1325L27.8888 16.7183L22.7704 21.1583L24.3121 27.7567L18.5 24.2417Z" fill="black"/>
</svg>
