<svg width="13" height="13" viewBox="0 0 13 13" fill="none" xmlns="http://www.w3.org/2000/svg">
<path d="M9.5 2.11111V3.08333H11.6875C11.8809 3.08333 12.0664 3.14479 12.2031 3.25419C12.3398 3.36358 12.4167 3.51196 12.4167 3.66667C12.4167 3.82138 12.3398 3.96975 12.2031 4.07915C12.0664 4.18854 11.8809 4.25 11.6875 4.25H1.47917C1.28578 4.25 1.10031 4.18854 0.963568 4.07915C0.826823 3.96975 0.75 3.82138 0.75 3.66667C0.75 3.51196 0.826823 3.36358 0.963568 3.25419C1.10031 3.14479 1.28578 3.08333 1.47917 3.08333H3.66667V2.11111C3.66667 1.35978 4.42889 0.75 5.36806 0.75H7.79861C8.73778 0.75 9.5 1.35978 9.5 2.11111ZM3.17667 5.94167L3.81833 11.075C3.82436 11.123 3.85248 11.1675 3.89721 11.1998C3.94195 11.2322 4.00012 11.25 4.06042 11.25H9.10625C9.16655 11.25 9.22471 11.2322 9.26945 11.1998C9.31419 11.1675 9.3423 11.123 9.34833 11.075L9.99 5.94167C10.0141 5.79099 10.1107 5.65378 10.2593 5.55922C10.4079 5.46465 10.5968 5.42019 10.7857 5.43528C10.9747 5.45038 11.1488 5.52384 11.2711 5.64005C11.3934 5.75626 11.4542 5.90604 11.4406 6.05756L10.7989 11.1909C10.7574 11.5269 10.5611 11.8385 10.2482 12.065C9.93532 12.2916 9.52827 12.417 9.10625 12.4167H4.06042C3.63867 12.4166 3.23198 12.2913 2.91923 12.0649C2.60648 11.8386 2.40995 11.5274 2.36778 11.1917L1.72611 6.05833C1.71393 5.9811 1.7212 5.9027 1.74749 5.82775C1.77378 5.7528 1.81855 5.68282 1.87917 5.62192C1.93979 5.56103 2.01504 5.51046 2.10047 5.47319C2.1859 5.43593 2.27979 5.41272 2.37661 5.40493C2.47342 5.39714 2.57121 5.40494 2.6642 5.42785C2.7572 5.45077 2.84352 5.48835 2.91808 5.53837C2.99264 5.58839 3.05393 5.64984 3.09834 5.7191C3.14275 5.78837 3.16938 5.86404 3.17667 5.94167ZM5.125 2.11111V3.08333H8.04167V2.11111C8.04167 2.05954 8.01606 2.01008 7.97048 1.97362C7.9249 1.93715 7.86307 1.91667 7.79861 1.91667H5.36806C5.30359 1.91667 5.24177 1.93715 5.19619 1.97362C5.15061 2.01008 5.125 2.05954 5.125 2.11111Z" fill="#020202"/>
</svg>
