<svg width="37" height="38" viewBox="0 0 37 38" fill="none" xmlns="http://www.w3.org/2000/svg">
<path d="M18.5 28.6739L12.1021 32.5281C11.8195 32.708 11.524 32.785 11.2156 32.7593C10.9073 32.7337 10.6375 32.6309 10.4063 32.451C10.175 32.2712 9.99516 32.0466 9.86668 31.7773C9.73821 31.507 9.71252 31.2048 9.7896 30.8708L11.4854 23.5864L5.81981 18.6916C5.56286 18.4604 5.40253 18.1968 5.33881 17.9008C5.27406 17.6058 5.29307 17.317 5.39585 17.0344C5.49863 16.7517 5.65279 16.5205 5.85835 16.3406C6.06391 16.1607 6.34654 16.0451 6.70627 15.9937L14.1833 15.3385L17.074 8.4781C17.2024 8.16977 17.4018 7.93852 17.6721 7.78435C17.9414 7.63018 18.2174 7.5531 18.5 7.5531C18.7827 7.5531 19.0591 7.63018 19.3294 7.78435C19.5987 7.93852 19.7976 8.16977 19.9261 8.4781L22.8167 15.3385L30.2938 15.9937C30.6535 16.0451 30.9361 16.1607 31.1417 16.3406C31.3472 16.5205 31.5014 16.7517 31.6042 17.0344C31.707 17.317 31.7265 17.6058 31.6628 17.9008C31.598 18.1968 31.4372 18.4604 31.1802 18.6916L25.5146 23.5864L27.2104 30.8708C27.2875 31.2048 27.2618 31.507 27.1333 31.7773C27.0049 32.0466 26.825 32.2712 26.5938 32.451C26.3625 32.6309 26.0927 32.7337 25.7844 32.7593C25.4761 32.785 25.1806 32.708 24.8979 32.5281L18.5 28.6739Z" fill="#FFC700"/>
</svg>
